<?xml version="1.0" encoding="UTF-8" standalone="no"?>
<!-- Created with Inkscape (http://www.inkscape.org/) -->

<svg
   width="32.091103mm"
   height="34.291245mm"
   viewBox="0 0 32.091103 34.291244"
   version="1.1"
   id="svg5"
   xml:space="preserve"
   xmlns="http://www.w3.org/2000/svg"
   xmlns:svg="http://www.w3.org/2000/svg"><defs
     id="defs2" /><g
     id="layer1"
     transform="translate(-66.069904,-124.49687)"><ellipse
       style="fill:#4cadad;fill-opacity:1;stroke-width:0.29424"
       id="ellipse394"
       cx="82.115456"
       cy="142.11333"
       rx="16.045551"
       ry="16.674788" /><path
       style="fill:#004040;fill-opacity:1;stroke-width:0.0846667"
       d="m 69.002703,151.54025 c 0.004,-0.0897 1.55121,-0.75087 2.59008,-1.10655 0.55344,-0.18948 1.05025,-0.36025 1.10401,-0.37949 0.0672,-0.024 -0.003,-0.37455 -0.2227,-1.12025 -0.8606,-2.9145 -0.82663,-3.30336 0.56809,-6.50392 1.08113,-2.48092 1.14758,-2.82025 1.16896,-5.969 0.0297,-4.37406 0.41117,-5.79394 2.36198,-8.79168 0.74967,-1.15199 1.820373,-2.23604 2.587583,-2.61984 0.6267,-0.3135 1.36089,-0.46077 1.80161,-0.36137 0.20047,0.0452 0.45122,0.0256 0.75237,-0.0587 0.26696,-0.0748 0.83257,-0.12891 1.38302,-0.13234 1.07724,-0.007 1.7158,0.13707 2.62467,0.591 1.3073,0.65292 2.21291,1.53711 3.43401,3.35277 0.95105,1.41413 1.2347,1.94096 1.54483,2.86932 0.30436,0.91107 0.38068,1.41698 0.48333,3.20354 0.17956,3.12519 0.68345,5.81333 1.65498,8.82898 0.5184,1.60915 0.51287,1.89423 -0.0821,4.23121 -0.25189,0.98934 -0.48234,1.98931 -0.51211,2.22214 l -0.0541,0.42333 0.82961,0.28609 c 0.45628,0.15735 1.18537,0.45158 1.62019,0.65385 0.42653,0.25345 0.93124,0.16517 0.59793,0.64525 -6.80861,9.42162 -20.011633,9.28067 -26.236243,-0.26434 z"
       id="path208" /></g></svg>
