<?xml version="1.0" encoding="UTF-8" standalone="no"?>

<svg
   width="32.091103mm"
   height="34.214939mm"
   viewBox="0 0 32.091103 34.214939"
   version="1.1"
   id="svg5"
   xml:space="preserve"
   xmlns="http://www.w3.org/2000/svg"
   xmlns:svg="http://www.w3.org/2000/svg"><defs
     id="defs2" /><ellipse
     style="fill:#4cadad;fill-opacity:1;stroke-width:0.29424"
     id="path341"
     cx="16.045551"
     cy="17.540154"
     rx="16.045551"
     ry="16.674788" /><path
     style="fill:#004040;fill-opacity:1;stroke-width:0.0839774"
     d="m 2.8596149,26.960492 c 0.0035,-0.08868 1.542887,-0.74268 2.57619,-1.094473 0.550473,-0.187411 1.044613,-0.356323 1.09809,-0.375355 0.06681,-0.02377 -0.0025,-0.370461 -0.221506,-1.108022 -0.855981,-2.882711 -0.822199,-3.267323 0.565049,-6.432971 1.075326,-2.453857 1.141423,-2.789483 1.16269,-5.903885 0.02954,-4.326347 0.408961,-5.7307292 2.3493121,-8.6957641 0.745658,-1.1394326 1.810612,-2.2116483 2.573715,-2.59126298 0.623331,-0.31008711 1.35359,-0.45574461 1.791953,-0.35743061 0.199393,0.044719 0.448794,0.025353 0.748332,-0.058086 0.265531,-0.073974 0.828106,-0.1275089 1.375606,-0.1309018 1.071463,-0.00664 1.706602,0.1355735 2.610597,0.58455112 1.30029,0.64580197 2.201048,1.52034507 3.415599,3.31619857 0.94595,1.3986979 1.228078,1.919789 1.536546,2.8380167 0.302727,0.9011364 0.378647,1.4015277 0.480743,3.1685921 0.178596,3.091098 0.679779,5.749911 1.6461,8.732669 0.515627,1.591592 0.510124,1.873566 -0.08169,4.185051 -0.25054,0.978549 -0.479753,1.967601 -0.509363,2.197896 l -0.05384,0.418714 0.825162,0.282965 c 0.453839,0.155631 1.179015,0.446654 1.611503,0.64672 0.314424,0.250791 0.277404,0.228837 0.686341,0.704839 -6.11591,9.046033 -20.0936378,9.549642 -26.1871291,-0.328061 z"
     id="path5358" /></svg>
