<?xml version="1.0" encoding="UTF-8" standalone="no"?>
<!-- Created with Inkscape (http://www.inkscape.org/) -->

<svg
   width="32.091103mm"
   height="34.214939mm"
   viewBox="0 0 32.091103 34.214939"
   version="1.1"
   id="svg5"
   xml:space="preserve"
   xmlns="http://www.w3.org/2000/svg"
   xmlns:svg="http://www.w3.org/2000/svg"><defs
     id="defs2" /><g
     id="layer1"
     transform="translate(-65.755291,-124.18116)"><ellipse
       style="fill:#4cadad;fill-opacity:1;stroke-width:0.29424"
       id="path341"
       cx="81.800842"
       cy="141.72131"
       rx="16.045551"
       ry="16.674788" /><path
       d="m 68.37331,150.70447 c -7.62e-4,-0.10674 1.101862,-0.60297 4.82531,-2.1716 1.373717,-0.57873 2.679491,-1.13847 2.901721,-1.24386 0.700548,-0.33225 0.852175,-0.65237 0.952839,-2.01169 l 0.05792,-0.78215 -0.308076,-0.46414 c -0.452207,-0.68127 -0.706562,-1.44198 -0.851279,-2.54595 -0.07065,-0.53897 -0.12846,-1.00008 -0.12846,-1.02467 0,-0.0246 -0.111519,-0.0202 -0.24782,0.01 -0.659052,0.14475 -1.133494,-0.50973 -1.270341,-1.75242 -0.04981,-0.45234 -0.166517,-1.01513 -0.259341,-1.25062 -0.346017,-0.87785 -0.297156,-1.86991 0.09828,-1.99541 0.143051,-0.0454 0.16362,-0.10104 0.118877,-0.32155 -0.349239,-1.72118 -0.39786,-3.30086 -0.118309,-3.84381 0.161639,-0.31393 0.06491,-0.37036 -0.145124,-0.0847 -0.135252,0.18397 -0.138167,0.17599 -0.08509,-0.23284 0.08543,-0.65807 0.289775,-1.31301 0.561349,-1.79916 0.2379,-0.42588 0.237667,-0.56386 -5.93e-4,-0.33867 -0.09206,0.087 -0.09611,0.0749 -0.0228,-0.0682 0.168484,-0.32874 1.200784,-1.29644 1.497394,-1.4037 0.163257,-0.059 0.296832,-0.14081 0.296832,-0.18172 0,-0.0673 -0.259174,-0.0385 -0.719667,0.0799 -0.297464,0.0765 0.466399,-0.40639 1.090796,-0.68955 0.331396,-0.15029 0.793037,-0.32356 1.025871,-0.38506 0.277641,-0.0733 0.565898,-0.23875 0.837581,-0.48065 0.410608,-0.36561 1.382844,-0.88259 1.871752,-0.9953 l 0.254,-0.0585 -0.248674,0.26046 c -0.299836,0.31405 -0.239851,0.33047 0.197871,0.0541 0.766009,-0.48356 1.998119,-0.85572 2.633474,-0.79543 l 0.296016,0.0281 -0.272512,0.16485 c -0.392443,0.23741 -0.443223,0.4228 -0.09683,0.35352 0.147784,-0.0296 0.596144,-0.0774 0.996354,-0.10628 l 0.727655,-0.0525 -0.289807,0.20122 c -0.364147,0.25285 -0.456352,0.46409 -0.166029,0.38037 0.374235,-0.10791 1.403348,-0.15999 1.820111,-0.0921 l 0.413724,0.0674 -0.461111,0.10788 c -0.464663,0.10871 -0.851304,0.2749 -0.851124,0.36585 5.3e-5,0.0271 0.219128,0.0515 0.486833,0.0543 0.320669,0.003 0.602068,0.0654 0.824771,0.18171 l 0.338035,0.17659 -0.380368,0.10563 -0.380369,0.10564 0.550333,0.13869 c 1.042436,0.26272 1.941971,0.94398 2.379918,1.80242 l 0.164944,0.32331 -0.341099,-0.0545 c -0.187603,-0.03 -0.341096,-0.025 -0.341096,0.0112 0,0.0362 0.133917,0.19582 0.297592,0.35478 0.572513,0.55602 0.967633,1.67279 0.970933,2.74431 0.002,0.61665 -0.29743,2.37331 -0.55712,3.26943 -0.11187,0.38605 -0.203405,0.71957 -0.203405,0.74115 0,0.0216 0.09973,-0.006 0.221615,-0.0617 0.19559,-0.0891 0.24032,-0.0779 0.381,0.0959 0.23361,0.2885 0.2127,1.0938 -0.0492,1.89622 -0.11474,0.3515 -0.23164,0.89929 -0.25977,1.21731 -0.10182,1.1512 -0.496081,1.74852 -1.160554,1.75828 l -0.358829,0.005 -0.106826,0.889 c -0.135392,1.12673 -0.380438,1.90524 -0.807843,2.56652 l -0.336983,0.52137 0.04464,0.89022 c 0.02455,0.48963 0.0891,1.00453 0.143432,1.14423 0.202889,0.52163 0.487384,0.69435 2.663643,1.61719 3.65548,1.5501 4.81563,2.04692 5.36408,2.29708 l 0.53137,0.24237 -0.3522,0.50401 c -5.494904,8.83194 -20.041458,10.33732 -26.660217,-0.43908 z"
       style="fill:#004040;fill-opacity:1;stroke-width:0.0846667"
       id="path265" /></g></svg>
